{
  "accessors": [
    {
      "bufferView": 2,
      "componentType": 5126,
      "count": 1339,
      "max": [
        1.4779462814331055,
        2.000807762145996,
        1.2376564741134644
      ],
      "min": [
        -1.5752757787704468,
        -1.5280182361602783,
        -0.2988503575325012
      ],
      "type": "VEC3"
    },
    {
      "bufferView": 2,
      "byteOffset": 16068,
      "componentType": 5126,
      "count": 1339,
      "max": [
        0.9730941653251648,
        0.989383339881897,
        0.9959579706192017
      ],
      "min": [
        -0.9418756365776062,
        -0.9982881546020508,
        -0.9963831901550293
      ],
      "type": "VEC3"
    },
    {
      "bufferView": 1,
      "componentType": 5126,
      "count": 1339,
      "max": [
        0.999754011631012,
        0.3698729872703552
      ],
      "min": [
        0.00024399999529123306,
        0.00024399999529123306
      ],
      "type": "VEC2"
    },
    {
      "bufferView": 0,
      "componentType": 5125,
      "count": 6000,
      "type": "SCALAR"
    }
  ],
  "asset": {
    "extras": {
      "author": "Austin Beaulier (https://sketchfab.com/Austin.Beaulier)",
      "license": "CC-BY-4.0 (http://creativecommons.org/licenses/by/4.0/)",
      "source": "https://sketchfab.com/3d-models/the-tiger-hunt-painting-photogrammetry-6757a901030a422ab3c0ed0edce435b1",
      "title": "The Tiger Hunt Painting (photogrammetry)"
    },
    "generator": "Sketchfab-12.67.0",
    "version": "2.0"
  },
  "bufferViews": [
    {
      "buffer": 0,
      "byteLength": 24000,
      "name": "floatBufferViews",
      "target": 34963
    },
    {
      "buffer": 0,
      "byteLength": 10712,
      "byteOffset": 24000,
      "byteStride": 8,
      "name": "floatBufferViews",
      "target": 34962
    },
    {
      "buffer": 0,
      "byteLength": 32136,
      "byteOffset": 34712,
      "byteStride": 12,
      "name": "floatBufferViews",
      "target": 34962
    }
  ],
  "buffers": [
    {
      "byteLength": 66848,
      "uri": "../../Painting-Textures/textures/painting-scene.bin"
    }
  ],
  "extensionsUsed": [
    "KHR_materials_unlit"
  ],
  "images": [
    {
      "uri": "../../Painting-Textures/textures/textures/model_Material_u1_v1_baseColor.jpeg"
    }
  ],
  "materials": [
    {
      "doubleSided": true,
      "extensions": {
        "KHR_materials_unlit": {}
      },
      "name": "model_Material_u1_v1",
      "pbrMetallicRoughness": {
        "baseColorTexture": {
          "index": 0
        },
        "metallicFactor": 0.0
      }
    }
  ],
  "meshes": [
    {
      "name": "Object_0",
      "primitives": [
        {
          "attributes": {
            "NORMAL": 1,
            "POSITION": 0,
            "TEXCOORD_0": 2
          },
          "indices": 3,
          "material": 0,
          "mode": 4
        }
      ]
    }
  ],
  "nodes": [
    {
      "children": [
        1
      ],
      "matrix": [
        0.41204023361206055,
        -0.8274677395820619,
        0.38147085905075057,
        0.0,
        -0.039397623389959335,
        0.40209141373634316,
        0.9147515296936036,
        0.0,
        -0.9103134870529175,
        -0.3919434845447541,
        0.13307757675647727,
        0.0,
        0.408002644777298,
        0.5180563926696778,
        -0.4965505599975585,
        1.0
      ],
      "name": "Sketchfab_model"
    },
    {
      "children": [
        2
      ],
      "name": "model.obj.cleaner.materialmerger.gles"
    },
    {
      "mesh": 0,
      "name": "Object_2"
    }
  ],
  "samplers": [
    {
      "magFilter": 9729,
      "minFilter": 9987,
      "wrapS": 10497,
      "wrapT": 10497
    }
  ],
  "scene": 0,
  "scenes": [
    {
      "name": "Sketchfab_Scene",
      "nodes": [
        0
      ]
    }
  ],
  "textures": [
    {
      "sampler": 0,
      "source": 0
    }
  ]
}
